<svg width="374.5775146484375px" height="120.8099609375px" xmlns="http://www.w3.org/2000/svg" viewBox="62.71124267578125 14.595019531250003 374.5775146484375 120.8099609375" style="background: rgba(0, 0, 0, 0);" preserveAspectRatio="xMidYMid"><defs><linearGradient id="editing-shiny-gradient" x1="0.04322727117869957" x2="0.9567727288213004" y1="0.2966316784620999" y2="0.7033683215379001" gradientUnits="objectBoundingBox"><stop offset="0.0" stop-color="#ffb200"></stop><stop offset="0.5" stop-color="#e10057"></stop><stop offset="1.0" stop-color="#5A1A80"></stop></linearGradient><linearGradient id="editing-shiny-gradient2" x1="0" x2="0" y1="0" y2="1"><stop offset="0.2" stop-color="#fff" stop-opacity="0.8"></stop><stop offset="0.8" stop-color="#fff" stop-opacity="0"></stop></linearGradient><filter id="editing-shiny2" x="-100%" y="-100%" width="300%" height="300%"><feMorphology operator="erode" radius="2"></feMorphology></filter><filter id="editing-shiny" x="-100%" y="-100%" width="300%" height="300%"><feFlood flood-color="#fff" result="flood"></feFlood><feConvolveMatrix in="SourceGraphic" result="conv" order="8,8" divisor="1" kernelMatrix="0 0 0 0 0 0 0 0 0 0 0 1 1 0 0 0 0 0 0 1 1 0 0 0 0 0 1 0 0 1 0 0 0 0 1 0 0 1 0 0 0 1 0 0 0 0 1 0 0 1 1 0 0 1 1 0 0 0 0 1 1 0 0 0 "></feConvolveMatrix><feOffset dx="0" dy="4" in="conv" result="offset"></feOffset><feComposite operator="in" in="flood" in2="offset" result="comp"></feComposite><feGaussianBlur in="offset" stdDeviation="3" result="shadow"></feGaussianBlur><feColorMatrix in="shadow" type="matrix" values="0.7 0 0 0 0  0 0.7 0 0 0  0 0 0.7 0 0  0 0 0 0.3 0" result="dark-shadow"></feColorMatrix><feOffset dx="0" dy="4" in="dark-shadow" result="offset-shadow"></feOffset><feOffset dx="0" dy="2" in="conv" result="offset-2"></feOffset><feComposite operator="out" in="offset" in2="offset-2" result="edge-diff"></feComposite><feGaussianBlur in="edge-diff" stdDeviation="1" result="edge-blur"></feGaussianBlur><feColorMatrix in="edge-blur" result="edge-shadow" type="matrix" values="0 0 0 0 0  0 0 0 0 0  0 0 0 0 0  0 0 0 0.5 0"></feColorMatrix><feComposite operator="in" in="edge-shadow" in2="offset" result="edge-shadow-in"></feComposite><feOffset dx="0" dy="1" in="edge-shadow-in" result="edge-shadow-final"></feOffset><feMerge result="out"><feMergeNode in="offset-shadow"></feMergeNode><feMergeNode in="comp"></feMergeNode><feMergeNode in="edge-shadow-final"></feMergeNode><feMergeNode in="SourceGraphic"></feMergeNode></feMerge></filter></defs><g filter="url(#editing-shiny)"><g transform="translate(121.07000637054443, 99)"><path d="M27.01-10.82L27.01-10.82L27.01-10.82Q28.61-9.73 28.61-7.33L28.61-7.33L28.61-7.33Q28.61-4.93 27.39-3.39L27.39-3.39L27.39-3.39Q26.18-1.86 24.19-0.83L24.19-0.83L24.19-0.83Q20.10 1.28 15.68 1.28L15.68 1.28L15.68 1.28Q11.26 1.28 8.67 0.32L8.67 0.32L8.67 0.32Q6.08-0.64 4.35-2.43L4.35-2.43L4.35-2.43Q0.96-5.82 0.96-12.03L0.96-12.03L0.96-12.03Q0.96-21.70 6.21-27.58L6.21-27.58L6.21-27.58Q11.84-33.92 21.63-33.92L21.63-33.92L21.63-33.92Q27.71-33.92 30.72-31.36L30.72-31.36L30.72-31.36Q32.96-29.44 32.96-26.30L32.96-26.30L32.96-26.30Q32.96-15.04 13.50-15.04L13.50-15.04L13.50-15.04Q13.25-13.38 13.25-11.97L13.25-11.97L13.25-11.97Q13.25-9.02 14.56-7.90L14.56-7.90L14.56-7.90Q15.87-6.78 18.30-6.78L18.30-6.78L18.30-6.78Q20.74-6.78 23.33-7.90L23.33-7.90L23.33-7.90Q25.92-9.02 27.01-10.82ZM13.95-17.79L13.95-17.79L13.95-17.79Q18.50-17.79 21.12-20.61L21.12-20.61L21.12-20.61Q23.74-23.30 23.74-27.58L23.74-27.58L23.74-27.58Q23.74-29.06 23.20-29.86L23.20-29.86L23.20-29.86Q22.66-30.66 21.57-30.66L21.57-30.66L21.57-30.66Q20.48-30.66 19.55-30.24L19.55-30.24L19.55-30.24Q18.62-29.82 17.66-28.42L17.66-28.42L17.66-28.42Q15.30-25.22 13.95-17.79ZM43.65 0.19L43.65 0.19L43.65 0.19Q41.60 1.28 38.78 1.28L38.78 1.28L38.78 1.28Q35.97 1.28 34.43-0.16L34.43-0.16L34.43-0.16Q32.90-1.60 32.90-4.38L32.90-4.38L32.90-4.38Q32.90-7.17 34.85-9.89L34.85-9.89L34.85-9.89Q36.80-12.61 39.71-14.14L39.71-14.14L39.71-14.14Q42.62-15.68 44.67-16.58L44.67-16.58L40.64-25.86L40.64-25.86Q39.55-28.22 37.50-28.22L37.50-28.22L36.99-28.16L36.80-28.16L36.80-28.16Q37.18-30.40 39.81-32.13L39.81-32.13L39.81-32.13Q42.43-33.92 45.44-33.92L45.44-33.92L45.44-33.92Q50.30-33.92 52.54-29.06L52.54-29.06L53.06-28.03L55.81-21.25L55.81-21.25Q57.54-22.02 58.27-23.46L58.27-23.46L58.27-23.46Q59.01-24.90 59.01-27.74L59.01-27.74L59.01-27.74Q59.01-30.59 57.47-32.38L57.47-32.38L57.47-32.38Q59.90-33.92 63.10-33.92L63.10-33.92L63.10-33.92Q68.86-33.92 68.86-28.35L68.86-28.35L68.86-28.35Q68.86-22.27 61.25-18.75L61.25-18.75L57.41-16.96L60.86-8.06L60.86-8.06Q61.89-5.38 63.74-4.22L63.74-4.22L63.74-4.22Q64.51-3.71 65.41-3.65L65.41-3.65L65.41-3.65Q63.49-0.51 59.33 0.90L59.33 0.90L59.33 0.90Q58.05 1.28 56.32 1.28L56.32 1.28L56.32 1.28Q54.59 1.28 52.61 0.10L52.61 0.10L52.61 0.10Q50.62-1.09 49.92-2.94L49.92-2.94L46.40-12.10L46.40-12.10Q42.82-10.50 42.82-4.67L42.82-4.67L42.82-4.67Q42.82-1.98 43.65 0.19ZM84.22 1.28L84.22 1.28L84.22 1.28Q70.14 1.28 70.14-11.97L70.14-11.97L70.14-11.97Q70.14-21.38 75.33-27.46L75.33-27.46L75.33-27.46Q80.83-33.92 90.37-33.92L90.37-33.92L90.37-33.92Q97.28-33.92 100.80-30.72L100.80-30.72L100.80-30.72Q104.32-27.52 104.32-20.80L104.32-20.80L104.32-20.80Q104.32-10.56 98.82-4.61L98.82-4.61L98.82-4.61Q93.44 1.28 84.22 1.28ZM85.89-26.56L85.89-26.56L85.89-26.56Q85.12-24.83 84.51-22.24L84.51-22.24L84.51-22.24Q83.90-19.65 83.14-15.55L83.14-15.55L83.14-15.55Q82.37-11.46 82.37-6.40L82.37-6.40L82.37-6.40Q82.37-4.74 82.91-3.65L82.91-3.65L82.91-3.65Q83.46-2.56 84.93-2.56L84.93-2.56L84.93-2.56Q86.40-2.56 87.33-3.26L87.33-3.26L87.33-3.26Q88.26-3.97 88.96-5.63L88.96-5.63L88.96-5.63Q90.24-8.58 91.26-14.05L91.26-14.05L91.26-14.05Q92.29-19.52 92.38-21.89L92.38-21.89L92.38-21.89Q92.48-24.26 92.48-26.02L92.48-26.02L92.48-26.02Q92.48-27.78 91.97-28.93L91.97-28.93L91.97-28.93Q91.46-30.08 90.02-30.08L90.02-30.08L90.02-30.08Q88.58-30.08 87.62-29.18L87.62-29.18L87.62-29.18Q86.66-28.29 85.89-26.56ZM128.13-17.98L128.13-17.98L128.13-17.98Q130.43-22.08 130.43-26.24L130.43-26.24L130.43-26.24Q130.43-28.99 128.45-28.99L128.45-28.99L128.45-28.99Q126.91-28.99 125.31-26.37L125.31-26.37L125.31-26.37Q123.65-23.74 123.14-20.35L123.14-20.35L119.81 0L106.56 1.28L113.09-32.64L123.65-33.92L122.50-27.46L122.50-27.46Q125.63-33.92 132.67-33.92L132.67-33.92L132.67-33.92Q136.38-33.92 138.40-32L138.40-32L138.40-32Q140.42-30.08 140.42-26.14L140.42-26.14L140.42-26.14Q140.42-22.21 137.82-19.71L137.82-19.71L137.82-19.71Q135.23-17.22 130.82-17.22L130.82-17.22L130.82-17.22Q128.90-17.22 128.13-17.98ZM156.80-3.52L156.80-3.52L156.80-3.52Q154.82 1.28 148.48 1.28L148.48 1.28L148.48 1.28Q145.22 1.28 143.17-0.96L143.17-0.96L143.17-0.96Q141.44-2.94 141.44-4.93L141.44-4.93L141.44-4.93Q141.44-10.11 143.81-20.22L143.81-20.22L146.18-32.64L159.17-33.92L155.26-13.70L155.26-13.70Q154.18-8.96 154.18-7.30L154.18-7.30L154.18-7.30Q154.18-3.65 156.80-3.52ZM147.33-41.54L147.33-41.54L147.33-41.54Q147.33-44.03 149.41-45.38L149.41-45.38L149.41-45.38Q151.49-46.72 154.50-46.72L154.50-46.72L154.50-46.72Q157.50-46.72 159.33-45.38L159.33-45.38L159.33-45.38Q161.15-44.03 161.15-41.54L161.15-41.54L161.15-41.54Q161.15-39.04 159.14-37.76L159.14-37.76L159.14-37.76Q157.12-36.48 154.11-36.48L154.11-36.48L154.11-36.48Q151.10-36.48 149.22-37.76L149.22-37.76L149.22-37.76Q147.33-39.04 147.33-41.54ZM182.78-2.69L182.78-2.69L182.78-2.69Q179.71 1.28 172.10 1.28L172.10 1.28L172.10 1.28Q168.13 1.28 165.25-1.12L165.25-1.12L165.25-1.12Q162.37-3.52 162.37-6.98L162.37-6.98L162.37-6.98Q162.37-8.90 162.56-9.86L162.56-9.86L166.85-32.64L179.84-33.92L175.17-9.22L175.17-9.22Q174.91-7.81 174.91-6.98L174.91-6.98L174.91-6.98Q174.91-3.26 177.15-3.26L177.15-3.26L177.15-3.26Q179.65-3.26 181.44-6.66L181.44-6.66L181.44-6.66Q182.02-7.74 182.27-9.15L182.27-9.15L186.82-32.64L199.42-33.92L194.69-8.96L194.69-8.96Q194.50-8 194.50-6.98L194.50-6.98L194.50-6.98Q194.50-5.95 195.07-4.83L195.07-4.83L195.07-4.83Q195.65-3.71 197.50-3.46L197.50-3.46L197.50-3.46Q197.12-1.92 195.78-0.90L195.78-0.90L195.78-0.90Q192.96 1.28 189.92 1.28L189.92 1.28L189.92 1.28Q186.88 1.28 185.09 0.19L185.09 0.19L185.09 0.19Q183.30-0.90 182.78-2.69ZM248.96 1.28L248.96 1.28L248.96 1.28Q241.22 1.28 241.22-4.74L241.22-4.74L241.22-4.74Q241.22-7.36 242.34-12.45L242.34-12.45L242.34-12.45Q243.46-17.54 243.84-19.58L243.84-19.58L243.84-19.58Q244.74-24.26 244.74-25.73L244.74-25.73L244.74-25.73Q244.74-28.99 242.30-28.99L242.30-28.99L242.30-28.99Q240.70-28.99 239.17-26.78L239.17-26.78L239.17-26.78Q237.63-24.58 236.93-20.16L236.93-20.16L232.96 0L220.48 1.28L223.94-16.13L223.94-16.13Q224.51-19.01 225.02-22.27L225.02-22.27L225.02-22.27Q225.54-25.54 225.54-26.05L225.54-26.05L225.54-26.05Q225.54-28.99 223.36-28.99L223.36-28.99L223.36-28.99Q221.89-28.99 220.29-26.82L220.29-26.82L220.29-26.82Q218.69-24.64 217.79-20.16L217.79-20.16L213.89 0L201.28 1.28L208.00-32.64L218.43-33.92L217.34-27.46L217.34-27.46Q219.01-30.91 222.08-32.42L222.08-32.42L222.08-32.42Q225.15-33.92 229.95-33.92L229.95-33.92L229.95-33.92Q232.70-33.92 234.50-32.58L234.50-32.58L234.50-32.58Q236.29-31.23 236.86-29.06L236.86-29.06L236.86-29.06Q237.95-31.30 240.74-32.61L240.74-32.61L240.74-32.61Q243.52-33.92 246.94-33.92L246.94-33.92L246.94-33.92Q250.37-33.92 252.06-33.18L252.06-33.18L252.06-33.18Q253.76-32.45 254.78-31.23L254.78-31.23L254.78-31.23Q256.51-28.99 256.51-24.90L256.51-24.90L256.51-24.90Q256.51-20.86 254.78-12.48L254.78-12.48L254.78-12.48Q253.89-8.38 253.89-6.88L253.89-6.88L253.89-6.88Q253.89-5.38 254.75-4.48L254.75-4.48L254.75-4.48Q255.62-3.58 256.90-3.46L256.90-3.46L256.90-3.46Q256.26-1.28 254.05 0L254.05 0L254.05 0Q251.84 1.28 248.96 1.28Z" fill="url(#editing-shiny-gradient)"></path></g></g><g filter="url(#editing-shiny2)"><g transform="translate(121.07000637054443, 99)"><path d="M27.01-10.82L27.01-10.82L27.01-10.82Q28.61-9.73 28.61-7.33L28.61-7.33L28.61-7.33Q28.61-4.93 27.39-3.39L27.39-3.39L27.39-3.39Q26.18-1.86 24.19-0.83L24.19-0.83L24.19-0.83Q20.10 1.28 15.68 1.28L15.68 1.28L15.68 1.28Q11.26 1.28 8.67 0.32L8.67 0.32L8.67 0.32Q6.08-0.64 4.35-2.43L4.35-2.43L4.35-2.43Q0.96-5.82 0.96-12.03L0.96-12.03L0.96-12.03Q0.96-21.70 6.21-27.58L6.21-27.58L6.21-27.58Q11.84-33.92 21.63-33.92L21.63-33.92L21.63-33.92Q27.71-33.92 30.72-31.36L30.72-31.36L30.72-31.36Q32.96-29.44 32.96-26.30L32.96-26.30L32.96-26.30Q32.96-15.04 13.50-15.04L13.50-15.04L13.50-15.04Q13.25-13.38 13.25-11.97L13.25-11.97L13.25-11.97Q13.25-9.02 14.56-7.90L14.56-7.90L14.56-7.90Q15.87-6.78 18.30-6.78L18.30-6.78L18.30-6.78Q20.74-6.78 23.33-7.90L23.33-7.90L23.33-7.90Q25.92-9.02 27.01-10.82ZM13.95-17.79L13.95-17.79L13.95-17.79Q18.50-17.79 21.12-20.61L21.12-20.61L21.12-20.61Q23.74-23.30 23.74-27.58L23.74-27.58L23.74-27.58Q23.74-29.06 23.20-29.86L23.20-29.86L23.20-29.86Q22.66-30.66 21.57-30.66L21.57-30.66L21.57-30.66Q20.48-30.66 19.55-30.24L19.55-30.24L19.55-30.24Q18.62-29.82 17.66-28.42L17.66-28.42L17.66-28.42Q15.30-25.22 13.95-17.79ZM43.65 0.19L43.65 0.19L43.65 0.19Q41.60 1.28 38.78 1.28L38.78 1.28L38.78 1.28Q35.97 1.28 34.43-0.16L34.43-0.16L34.43-0.16Q32.90-1.60 32.90-4.38L32.90-4.38L32.90-4.38Q32.90-7.17 34.85-9.89L34.85-9.89L34.85-9.89Q36.80-12.61 39.71-14.14L39.71-14.14L39.71-14.14Q42.62-15.68 44.67-16.58L44.67-16.58L40.64-25.86L40.64-25.86Q39.55-28.22 37.50-28.22L37.50-28.22L36.99-28.16L36.80-28.16L36.80-28.16Q37.18-30.40 39.81-32.13L39.81-32.13L39.81-32.13Q42.43-33.92 45.44-33.92L45.44-33.92L45.44-33.92Q50.30-33.92 52.54-29.06L52.54-29.06L53.06-28.03L55.81-21.25L55.81-21.25Q57.54-22.02 58.27-23.46L58.27-23.46L58.27-23.46Q59.01-24.90 59.01-27.74L59.01-27.74L59.01-27.74Q59.01-30.59 57.47-32.38L57.47-32.38L57.47-32.38Q59.90-33.92 63.10-33.92L63.10-33.92L63.10-33.92Q68.86-33.92 68.86-28.35L68.86-28.35L68.86-28.35Q68.86-22.27 61.25-18.75L61.25-18.75L57.41-16.96L60.86-8.06L60.86-8.06Q61.89-5.38 63.74-4.22L63.74-4.22L63.74-4.22Q64.51-3.71 65.41-3.65L65.41-3.65L65.41-3.65Q63.49-0.51 59.33 0.90L59.33 0.90L59.33 0.90Q58.05 1.28 56.32 1.28L56.32 1.28L56.32 1.28Q54.59 1.28 52.61 0.10L52.61 0.10L52.61 0.10Q50.62-1.09 49.92-2.94L49.92-2.94L46.40-12.10L46.40-12.10Q42.82-10.50 42.82-4.67L42.82-4.67L42.82-4.67Q42.82-1.98 43.65 0.19ZM84.22 1.28L84.22 1.28L84.22 1.28Q70.14 1.28 70.14-11.97L70.14-11.97L70.14-11.97Q70.14-21.38 75.33-27.46L75.33-27.46L75.33-27.46Q80.83-33.92 90.37-33.92L90.37-33.92L90.37-33.92Q97.28-33.92 100.80-30.72L100.80-30.72L100.80-30.72Q104.32-27.52 104.32-20.80L104.32-20.80L104.32-20.80Q104.32-10.56 98.82-4.61L98.82-4.61L98.82-4.61Q93.44 1.28 84.22 1.28ZM85.89-26.56L85.89-26.56L85.89-26.56Q85.12-24.83 84.51-22.24L84.51-22.24L84.51-22.24Q83.90-19.65 83.14-15.55L83.14-15.55L83.14-15.55Q82.37-11.46 82.37-6.40L82.37-6.40L82.37-6.40Q82.37-4.74 82.91-3.65L82.91-3.65L82.91-3.65Q83.46-2.56 84.93-2.56L84.93-2.56L84.93-2.56Q86.40-2.56 87.33-3.26L87.33-3.26L87.33-3.26Q88.26-3.97 88.96-5.63L88.96-5.63L88.96-5.63Q90.24-8.58 91.26-14.05L91.26-14.05L91.26-14.05Q92.29-19.52 92.38-21.89L92.38-21.89L92.38-21.89Q92.48-24.26 92.48-26.02L92.48-26.02L92.48-26.02Q92.48-27.78 91.97-28.93L91.97-28.93L91.97-28.93Q91.46-30.08 90.02-30.08L90.02-30.08L90.02-30.08Q88.58-30.08 87.62-29.18L87.62-29.18L87.62-29.18Q86.66-28.29 85.89-26.56ZM128.13-17.98L128.13-17.98L128.13-17.98Q130.43-22.08 130.43-26.24L130.43-26.24L130.43-26.24Q130.43-28.99 128.45-28.99L128.45-28.99L128.45-28.99Q126.91-28.99 125.31-26.37L125.31-26.37L125.31-26.37Q123.65-23.74 123.14-20.35L123.14-20.35L119.81 0L106.56 1.28L113.09-32.64L123.65-33.92L122.50-27.46L122.50-27.46Q125.63-33.92 132.67-33.92L132.67-33.92L132.67-33.92Q136.38-33.92 138.40-32L138.40-32L138.40-32Q140.42-30.08 140.42-26.14L140.42-26.14L140.42-26.14Q140.42-22.21 137.82-19.71L137.82-19.71L137.82-19.71Q135.23-17.22 130.82-17.22L130.82-17.22L130.82-17.22Q128.90-17.22 128.13-17.98ZM156.80-3.52L156.80-3.52L156.80-3.52Q154.82 1.28 148.48 1.28L148.48 1.28L148.48 1.28Q145.22 1.28 143.17-0.96L143.17-0.96L143.17-0.96Q141.44-2.94 141.44-4.93L141.44-4.93L141.44-4.93Q141.44-10.11 143.81-20.22L143.81-20.22L146.18-32.64L159.17-33.92L155.26-13.70L155.26-13.70Q154.18-8.96 154.18-7.30L154.18-7.30L154.18-7.30Q154.18-3.65 156.80-3.52ZM147.33-41.54L147.33-41.54L147.33-41.54Q147.33-44.03 149.41-45.38L149.41-45.38L149.41-45.38Q151.49-46.72 154.50-46.72L154.50-46.72L154.50-46.72Q157.50-46.72 159.33-45.38L159.33-45.38L159.33-45.38Q161.15-44.03 161.15-41.54L161.15-41.54L161.15-41.54Q161.15-39.04 159.14-37.76L159.14-37.76L159.14-37.76Q157.12-36.48 154.11-36.48L154.11-36.48L154.11-36.48Q151.10-36.48 149.22-37.76L149.22-37.76L149.22-37.76Q147.33-39.04 147.33-41.54ZM182.78-2.69L182.78-2.69L182.78-2.69Q179.71 1.28 172.10 1.28L172.10 1.28L172.10 1.28Q168.13 1.28 165.25-1.12L165.25-1.12L165.25-1.12Q162.37-3.52 162.37-6.98L162.37-6.98L162.37-6.98Q162.37-8.90 162.56-9.86L162.56-9.86L166.85-32.64L179.84-33.92L175.17-9.22L175.17-9.22Q174.91-7.81 174.91-6.98L174.91-6.98L174.91-6.98Q174.91-3.26 177.15-3.26L177.15-3.26L177.15-3.26Q179.65-3.26 181.44-6.66L181.44-6.66L181.44-6.66Q182.02-7.74 182.27-9.15L182.27-9.15L186.82-32.64L199.42-33.92L194.69-8.96L194.69-8.96Q194.50-8 194.50-6.98L194.50-6.98L194.50-6.98Q194.50-5.95 195.07-4.83L195.07-4.83L195.07-4.83Q195.65-3.71 197.50-3.46L197.50-3.46L197.50-3.46Q197.12-1.92 195.78-0.90L195.78-0.90L195.78-0.90Q192.96 1.28 189.92 1.28L189.92 1.28L189.92 1.28Q186.88 1.28 185.09 0.19L185.09 0.19L185.09 0.19Q183.30-0.90 182.78-2.69ZM248.96 1.28L248.96 1.28L248.96 1.28Q241.22 1.28 241.22-4.74L241.22-4.74L241.22-4.74Q241.22-7.36 242.34-12.45L242.34-12.45L242.34-12.45Q243.46-17.54 243.84-19.58L243.84-19.58L243.84-19.58Q244.74-24.26 244.74-25.73L244.74-25.73L244.74-25.73Q244.74-28.99 242.30-28.99L242.30-28.99L242.30-28.99Q240.70-28.99 239.17-26.78L239.17-26.78L239.17-26.78Q237.63-24.58 236.93-20.16L236.93-20.16L232.96 0L220.48 1.28L223.94-16.13L223.94-16.13Q224.51-19.01 225.02-22.27L225.02-22.27L225.02-22.27Q225.54-25.54 225.54-26.05L225.54-26.05L225.54-26.05Q225.54-28.99 223.36-28.99L223.36-28.99L223.36-28.99Q221.89-28.99 220.29-26.82L220.29-26.82L220.29-26.82Q218.69-24.64 217.79-20.16L217.79-20.16L213.89 0L201.28 1.28L208.00-32.64L218.43-33.92L217.34-27.46L217.34-27.46Q219.01-30.91 222.08-32.42L222.08-32.42L222.08-32.42Q225.15-33.92 229.95-33.92L229.95-33.92L229.95-33.92Q232.70-33.92 234.50-32.58L234.50-32.58L234.50-32.58Q236.29-31.23 236.86-29.06L236.86-29.06L236.86-29.06Q237.95-31.30 240.74-32.61L240.74-32.61L240.74-32.61Q243.52-33.92 246.94-33.92L246.94-33.92L246.94-33.92Q250.37-33.92 252.06-33.18L252.06-33.18L252.06-33.18Q253.76-32.45 254.78-31.23L254.78-31.23L254.78-31.23Q256.51-28.99 256.51-24.90L256.51-24.90L256.51-24.90Q256.51-20.86 254.78-12.48L254.78-12.48L254.78-12.48Q253.89-8.38 253.89-6.88L253.89-6.88L253.89-6.88Q253.89-5.38 254.75-4.48L254.75-4.48L254.75-4.48Q255.62-3.58 256.90-3.46L256.90-3.46L256.90-3.46Q256.26-1.28 254.05 0L254.05 0L254.05 0Q251.84 1.28 248.96 1.28Z" fill="url(#editing-shiny-gradient2)"></path></g></g><style>text {
  font-size: 64px;
  font-family: Arial Black;
  dominant-baseline: central;
  text-anchor: middle;
}</style></svg>
